<svg width="30" height="36" viewBox="0 0 30 36" fill="none" xmlns="http://www.w3.org/2000/svg">
<path d="M16.9215 35.1015L29.4221 20.1008C29.8439 19.5909 30.0465 18.9345 29.9854 18.2756C29.9243 17.6166 29.6046 17.0087 29.0963 16.5849C28.5879 16.1612 27.9324 15.9562 27.2732 16.0148C26.614 16.0734 26.0048 16.3908 25.5792 16.8975L15 29.5934L4.42077 16.8975C3.99571 16.3888 3.38611 16.0697 2.72588 16.0101C2.06564 15.9506 1.40877 16.1555 0.899563 16.58C0.39035 17.0044 0.0704402 17.6137 0.0101069 18.2738C-0.0502244 18.934 0.153953 19.5911 0.577791 20.1008L13.0786 35.1015C13.3136 35.3828 13.6075 35.609 13.9395 35.7643C14.2715 35.9195 14.6335 36 15.0001 36C15.3666 36 15.7286 35.9195 16.0606 35.7643C16.3927 35.609 16.6865 35.3828 16.9215 35.1015Z" fill="#333333"/>
<rect x="11.9961" y="31" width="31" height="6" rx="3" transform="rotate(-90 11.9961 31)" fill="#333333"/>
</svg>
