<svg width="20" height="20" viewBox="0 0 20 20" fill="none" xmlns="http://www.w3.org/2000/svg">
<path fill-rule="evenodd" clip-rule="evenodd" d="M2.06493 0H17.9351C19.0725 0 20 0.927508 20 2.06493V17.9351C20 19.0725 19.0725 20 17.9351 20H2.06493C0.927508 20 0 19.0725 0 17.9351V2.06493C0 0.927508 0.927508 0 2.06493 0ZM8.20112 13.9077H7.48108C5.3229 13.9077 3.57335 12.1582 3.57335 10V8.31584C3.57335 7.08779 4.56888 6.09226 5.79693 6.09226H7.33952C7.71562 6.09226 8.0205 6.39715 8.0205 6.77325C8.0205 7.14935 7.71562 7.45424 7.33952 7.45424H6.16305C5.65484 7.45424 5.24286 7.86622 5.24286 8.37442C5.24286 8.88262 5.65484 9.29461 6.16305 9.29461H7.14669C7.52144 9.29461 7.82524 9.5984 7.82524 9.97315C7.82524 10.3479 7.52144 10.6517 7.14669 10.6517H6.1899C5.66686 10.6517 5.24286 11.0757 5.24286 11.5987C5.24286 12.1218 5.66686 12.5458 6.1899 12.5458H7.52502C7.90112 12.5458 8.20601 12.8507 8.20601 13.2268V13.9029C8.20601 13.9056 8.20382 13.9077 8.20112 13.9077ZM16.4274 13.9036C16.4289 13.9051 16.4278 13.9077 16.4256 13.9077H15.0356C14.8405 13.9077 14.6586 13.8094 14.5518 13.6462L11.4132 8.85038C11.2451 8.59103 11.1196 8.38366 11.0412 8.22362C11.0388 8.21879 11.0339 8.21577 11.0286 8.21577C11.0202 8.21577 11.0137 8.22291 11.0146 8.23121C11.0428 8.50005 11.0569 8.90985 11.0569 9.46058V13.1194C11.0569 13.5548 10.7039 13.9077 10.2685 13.9077C9.83308 13.9077 9.48011 13.5548 9.48011 13.1194V7.2691C9.48011 6.61915 10.007 6.09226 10.6569 6.09226C11.0555 6.09226 11.427 6.29402 11.6441 6.62836L14.4838 11.0032C14.688 11.3214 14.8183 11.5241 14.8657 11.6158C14.868 11.6203 14.8726 11.6231 14.8777 11.6231C14.8861 11.6231 14.8925 11.6156 14.8911 11.6073C14.8589 11.4131 14.845 11.0573 14.845 10.5443V6.8782C14.845 6.44144 15.1991 6.08738 15.6358 6.08738C16.0726 6.08738 16.4267 6.44144 16.4267 6.8782V13.9018C16.4267 13.9025 16.4269 13.9031 16.4274 13.9036Z" fill="#333333"/>
</svg>
