<svg width="30" height="30" viewBox="0 0 30 30" fill="none" xmlns="http://www.w3.org/2000/svg">
<path fill-rule="evenodd" clip-rule="evenodd" d="M14.875 0C6.66055 0 0 6.82656 0 15.2535C0 21.9938 4.26328 27.7047 10.1734 29.7234C10.9172 29.8629 11.1895 29.3914 11.1895 28.9863C11.1895 28.6211 11.1762 27.6648 11.1695 26.3898C7.03242 27.3129 6.15586 24.3445 6.15586 24.3445C5.47852 22.5848 4.50234 22.1133 4.50234 22.1133C3.1543 21.1637 4.60195 21.1836 4.60195 21.1836C6.09609 21.2898 6.87969 22.7574 6.87969 22.7574C8.20781 25.0883 10.3594 24.4176 11.2094 24.0258C11.3422 23.043 11.7273 22.3656 12.1523 21.9871C8.85195 21.602 5.37891 20.2938 5.37891 14.45C5.37891 12.7832 5.95664 11.4219 6.90625 10.3594C6.75352 9.97422 6.24219 8.42031 7.05234 6.32187C7.05234 6.32187 8.30078 5.91016 11.143 7.88242C12.3316 7.54375 13.6 7.37773 14.8684 7.37109C16.1301 7.37773 17.4051 7.54375 18.5938 7.88242C21.4359 5.91016 22.6777 6.32187 22.6777 6.32187C23.4879 8.42031 22.9766 9.97422 22.8238 10.3594C23.7734 11.4285 24.3512 12.7898 24.3512 14.45C24.3512 20.307 20.8715 21.5953 17.5578 21.9738C18.0891 22.4453 18.5672 23.375 18.5672 24.7961C18.5672 26.8348 18.5473 28.4816 18.5473 28.9797C18.5473 29.3848 18.8129 29.8629 19.5699 29.7102C25.4934 27.698 29.75 21.9871 29.75 15.2535C29.75 6.82656 23.0895 0 14.875 0Z" fill="#333333"/>
</svg>
