<svg width="512" height="512" viewBox="0 0 512 512" fill="none" xmlns="http://www.w3.org/2000/svg">
<path d="M497.04 150.121C503.099 143.127 495.205 133.042 486.033 134.266C485.694 134.311 485.355 134.355 485.016 134.398C475.785 135.565 471.856 123.951 477.851 116.836C481.515 112.486 485.092 107.487 488.151 101.866C492.352 94.1444 483.432 87.3453 475.286 90.6493C457.297 97.9452 438.459 101.489 427.203 101.978C425.033 102.072 422.95 101.296 421.196 100.015C404.022 87.4756 382.9 80 360 80C302.562 80 256 126.547 256 183.984C256 185.35 256.034 186.709 256.099 188.06C256.394 194.254 251.69 199.76 245.507 199.286C202.122 195.959 124.517 177.3 57.3777 106.325C52.6752 101.354 44.3972 102.126 41.5586 108.352C16.9294 162.378 46.6886 199.376 69.1961 220.442C74.3006 225.22 72.9975 233.374 66.0218 232.902C60.6272 232.537 55.2732 230.785 50.4639 228.55C42.6556 224.922 32.8516 229.952 34.7457 238.351C39.8263 260.882 54.2851 294.896 95.3934 311.128C103.446 314.308 104.7 324.011 96.1037 325.039C93.4572 325.355 90.7811 325.489 88.1347 325.452C79.0832 325.326 68.8586 334.793 73.3528 342.651C87.7065 367.748 111.259 379.914 130.225 385.779C139.441 388.629 142.959 402.957 134.513 407.616C107.135 422.72 79.5563 429.629 47.006 431.537C37.3122 432.105 33.5135 444.146 42.0248 448.821C85.855 472.894 133.595 479.477 176 479.984C216.047 480.453 252.813 472.203 281.961 460.078C403.289 409.594 464 303.375 464 183.984C464 183.286 463.991 182.59 463.974 181.897C463.865 177.392 466.469 173.242 470.499 171.224C480.861 166.036 489.709 158.583 497.04 150.121Z" fill="url(#paint0_linear_1_230)"/>
<circle cx="369.784" cy="126.784" r="29.7591" transform="rotate(-33.33 369.784 126.784)" fill="white"/>
<ellipse cx="386.5" cy="122" rx="13.5" ry="13" fill="#8D7B96"/>
<defs>
<linearGradient id="paint0_linear_1_230" x1="248" y1="304.5" x2="465.5" y2="679.5" gradientUnits="userSpaceOnUse">
<stop stop-color="#FFD78A"/>
<stop offset="0.926677" stop-color="#FF6C6C"/>
</linearGradient>
</defs>
</svg>
