<svg width="500" height="500" viewBox="0 0 500 500" fill="none" xmlns="http://www.w3.org/2000/svg">
<rect width="500" height="500" rx="40" fill="white"/>
<path d="M169.829 258.756L169.902 258.707C172.487 256.118 175.557 254.064 178.937 252.662C182.316 251.261 185.939 250.539 189.597 250.539C193.256 250.539 196.879 251.261 200.258 252.662C203.638 254.064 206.708 256.118 209.293 258.707L209.439 258.829L230.341 280.463L280.317 230.512C285.544 225.295 292.627 222.365 300.012 222.365C307.397 222.365 314.481 225.295 319.707 230.512L386.854 297.756V159.659C386.854 132 364.341 109.488 336.683 109.488H163.317C135.658 109.488 113.146 132 113.146 159.659V316.415L169.829 258.756ZM197.536 163.098C201.502 163.098 205.378 164.273 208.675 166.476C211.972 168.679 214.542 171.811 216.059 175.474C217.577 179.137 217.974 183.169 217.2 187.058C216.426 190.947 214.517 194.519 211.713 197.323C208.909 200.127 205.337 202.036 201.448 202.81C197.559 203.583 193.528 203.186 189.864 201.669C186.201 200.152 183.07 197.582 180.867 194.285C178.664 190.988 177.488 187.112 177.488 183.146C177.488 177.829 179.6 172.73 183.36 168.97C187.12 165.21 192.219 163.098 197.536 163.098V163.098Z" fill="#E8F1FF"/>
<path d="M193.732 274.171C192.621 273.089 191.131 272.486 189.581 272.491C188.03 272.496 186.544 273.107 185.439 274.195L113.61 347.219C116.976 371.658 137.976 390.512 163.317 390.512H306.195L193.732 274.171Z" fill="#E0E0E0"/>
<path d="M304.195 246.024C303.078 244.929 301.576 244.316 300.012 244.316C298.448 244.316 296.946 244.929 295.829 246.024L245.61 296.268L336.707 390.512C364.366 390.512 386.854 368 386.854 340.341V328.829L304.195 246.024Z" fill="#E0E0E0"/>
</svg>
