<svg width="20" height="20" viewBox="0 0 20 20" fill="none" xmlns="http://www.w3.org/2000/svg">
<path d="M10 16C13.3137 16 16 13.3137 16 10C16 6.68629 13.3137 4 10 4C6.68629 4 4 6.68629 4 10C4 13.3137 6.68629 16 10 16Z" fill="#333333"/>
<path d="M10.6663 2V0.666667C10.6663 0.298477 10.3679 0 9.99967 0C9.63148 0 9.33301 0.298477 9.33301 0.666667V2C9.33301 2.36819 9.63148 2.66667 9.99967 2.66667C10.3679 2.66667 10.6663 2.36819 10.6663 2Z" fill="#333333"/>
<path d="M10.6663 19.3333V17.9999C10.6663 17.6317 10.3679 17.3333 9.99967 17.3333C9.63148 17.3333 9.33301 17.6317 9.33301 17.9999V19.3333C9.33301 19.7014 9.63148 19.9999 9.99967 19.9999C10.3679 19.9999 10.6663 19.7014 10.6663 19.3333Z" fill="#333333"/>
<path d="M19.333 9.33325H17.9997C17.6315 9.33325 17.333 9.63173 17.333 9.99992C17.333 10.3681 17.6315 10.6666 17.9997 10.6666H19.333C19.7012 10.6666 19.9997 10.3681 19.9997 9.99992C19.9997 9.63173 19.7012 9.33325 19.333 9.33325Z" fill="#333333"/>
<path d="M2 9.33325H0.666667C0.298477 9.33325 0 9.63173 0 9.99992C0 10.3681 0.298477 10.6666 0.666667 10.6666H2C2.36819 10.6666 2.66667 10.3681 2.66667 9.99992C2.66667 9.63173 2.36819 9.33325 2 9.33325Z" fill="#333333"/>
<path d="M17.0709 16.1284L16.1281 15.1856C15.8677 14.9252 15.4456 14.9252 15.1853 15.1856C14.9249 15.4459 14.9249 15.868 15.1853 16.1284L16.1281 17.0712C16.3884 17.3315 16.8105 17.3315 17.0709 17.0712C17.3312 16.8108 17.3312 16.3887 17.0709 16.1284Z" fill="#333333"/>
<path d="M4.81501 3.87179L3.87221 2.92899C3.61186 2.66864 3.18975 2.66864 2.92941 2.92899C2.66906 3.18934 2.66906 3.61144 2.92941 3.87179L3.87221 4.81459C4.13255 5.07494 4.55466 5.07494 4.81501 4.81459C5.07535 4.55424 5.07535 4.13214 4.81501 3.87179Z" fill="#333333"/>
<path d="M3.87221 15.1847L2.92941 16.1275C2.66906 16.3878 2.66906 16.8099 2.92941 17.0703C3.18975 17.3306 3.61186 17.3306 3.87221 17.0703L4.81501 16.1275C5.07535 15.8671 5.07535 15.445 4.81501 15.1847C4.55466 14.9243 4.13255 14.9243 3.87221 15.1847Z" fill="#333333"/>
<path d="M16.1281 2.92882L15.1853 3.87162C14.9249 4.13196 14.9249 4.55407 15.1853 4.81442C15.4456 5.07476 15.8677 5.07476 16.1281 4.81442L17.0709 3.87162C17.3312 3.61127 17.3312 3.18916 17.0709 2.92882C16.8105 2.66847 16.3884 2.66847 16.1281 2.92882Z" fill="#333333"/>
</svg>
