<svg width="25" height="25" viewBox="0 0 25 25" fill="none" xmlns="http://www.w3.org/2000/svg">
<g clip-path="url(#clip0_3_814)">
<path fill-rule="evenodd" clip-rule="evenodd" d="M6.36242 6.46819H2.78037C2.04265 6.46819 1.3355 6.76106 0.813722 7.28284C0.292866 7.8037 0 8.51084 0 9.24857C0 11.0892 0 13.8955 0 15.7361C0 16.4738 0.292866 17.181 0.813722 17.7018C1.3355 18.2236 2.04265 18.5165 2.78037 18.5165H6.36242L8.98523 21.6638C9.73501 22.5638 10.9667 22.8974 12.0677 22.4989C13.1688 22.1004 13.9019 21.0549 13.9019 19.8844V5.10025C13.9019 3.92972 13.1688 2.8843 12.0677 2.48578C10.9667 2.08726 9.73501 2.4209 8.98523 3.32081L6.36242 6.46819Z" fill="#333333"/>
<path fill-rule="evenodd" clip-rule="evenodd" d="M20.3831 11.2069L17.3293 8.15317C16.9679 7.79172 16.3803 7.79172 16.0189 8.15317C15.6565 8.51461 15.6565 9.1022 16.0189 9.46365L19.0726 12.5174L16.0189 15.5712C15.6565 15.9326 15.6565 16.5202 16.0189 16.8817C16.3803 17.2441 16.9679 17.2441 17.3293 16.8817L20.3831 13.8279L23.4369 16.8817C23.7983 17.2441 24.3859 17.2441 24.7474 16.8817C25.1088 16.5202 25.1088 15.9326 24.7474 15.5712L21.6936 12.5174L24.7474 9.46365C25.1088 9.1022 25.1088 8.51461 24.7474 8.15317C24.3859 7.79172 23.7983 7.79172 23.4369 8.15317L20.3831 11.2069Z" fill="#333333"/>
</g>
<defs>
<clipPath id="clip0_3_814">
<rect width="25" height="25" fill="white"/>
</clipPath>
</defs>
</svg>
