<svg width="15" height="23" viewBox="0 0 15 23" fill="none" xmlns="http://www.w3.org/2000/svg">
<path d="M14.3261 9.80592L3.07561 0.430476C2.69315 0.114115 2.2009 -0.0377952 1.70668 0.00801193C1.21245 0.0538191 0.756509 0.29361 0.438708 0.674875C0.120906 1.05614 -0.0328597 1.5478 0.0110829 2.0422C0.0550256 2.5366 0.293095 2.99344 0.673158 3.31268L10.1951 11.2471L0.673158 19.1815C0.29163 19.5003 0.0522452 19.9575 0.0075883 20.4527C-0.0370686 20.9478 0.116655 21.4405 0.434991 21.8224C0.753326 22.2043 1.21024 22.4442 1.70536 22.4895C2.20048 22.5347 2.69332 22.3816 3.07561 22.0637L14.3261 12.6881C14.5371 12.5119 14.7068 12.2915 14.8232 12.0425C14.9396 11.7935 15 11.5219 15 11.247C15 10.9721 14.9396 10.7006 14.8232 10.4516C14.7068 10.2026 14.5371 9.98217 14.3261 9.80592Z" fill="#D7D7D7"/>
</svg>
