<svg width="94" height="94" viewBox="0 0 94 94" fill="none" xmlns="http://www.w3.org/2000/svg">
<g clip-path="url(#clip0_3_605)">
<path d="M94 23.4971C91.213 24.5929 87.022 25.0835 84.063 24.8195C85.7583 23.6204 90.0643 20.1121 91.0625 14.6875C86.6461 17.5734 80.4614 18.7754 77.8193 18.7323C74.582 16.2078 70.5187 14.6875 66.0938 14.6875C55.5485 14.6875 47 23.2332 47 33.7783C47 34.7708 47.099 35.7406 47.2453 36.6929C39.6348 36.5552 22.7096 33.6033 8.8125 17.6221C1.22494 30.597 10.5379 38.6694 14.6875 42.2323C10.8937 44.3063 5.875 39.7365 5.875 39.7365C5.875 39.7365 5.63119 55.1354 21.4704 58.2681C18.7882 60.2762 14.075 60.0954 11.75 58.6266C14.9557 71.0996 28.4842 71.8138 29.375 71.8138C21.1764 77.8724 13.5859 79.5534 2.9375 79.3096C12.1789 86.2861 22.9534 88.0102 32.3125 88.1221C39.6649 88.2082 46.4149 86.6935 51.7663 84.4674C74.0413 75.1989 85.1875 55.6978 85.1875 33.7783C85.1875 33.1759 85.1517 32.585 85.0972 31.9969C89.2194 30.4479 92.1885 26.9653 94 23.4971Z" fill="#CDAA82"/>
<circle cx="67.89" cy="23.2768" r="5.46359" transform="rotate(-33.33 67.89 23.2768)" fill="white"/>
<ellipse cx="70.959" cy="22.3984" rx="2.47852" ry="2.38672" fill="#ED6565"/>
</g>
<defs>
<clipPath id="clip0_3_605">
<rect width="94" height="94" fill="white"/>
</clipPath>
</defs>
</svg>
