<svg width="25" height="25" viewBox="0 0 25 25" fill="none" xmlns="http://www.w3.org/2000/svg">
<g clip-path="url(#clip0_3_816)">
<path fill-rule="evenodd" clip-rule="evenodd" d="M6.13084 6.70391H2.67917C1.9683 6.70391 1.2869 6.98612 0.784997 7.48891C0.282206 7.99081 0 8.67221 0 9.38308C0 11.1567 0 13.8609 0 15.6345C0 16.3454 0.282206 17.0268 0.784997 17.5287C1.2869 18.0315 1.9683 18.3137 2.67917 18.3137H6.13084L8.65819 21.3465C9.38067 22.2136 10.5684 22.5351 11.6285 22.1511C12.6895 21.7671 13.3959 20.7597 13.3959 19.6318V5.38576C13.3959 4.25783 12.6895 3.25046 11.6285 2.86645C10.5684 2.48243 9.38067 2.80393 8.65819 3.67109L6.13084 6.70391Z" fill="#ED6565"/>
<path fill-rule="evenodd" clip-rule="evenodd" d="M20.1457 4.82588C22.0568 6.8299 23.2303 9.54212 23.2303 12.5258C23.2303 15.4943 22.0684 18.1941 20.1751 20.1945C19.8367 20.5526 19.8518 21.1179 20.21 21.4573C20.5681 21.7958 21.1334 21.7806 21.4727 21.4225C23.6688 19.1014 25.0164 15.9695 25.0164 12.5258C25.0164 9.06433 23.6545 5.91809 21.4379 3.59346C21.0977 3.23713 20.5315 3.22374 20.1751 3.5631C19.8188 3.90335 19.8054 4.46955 20.1457 4.82588Z" fill="#ED6565"/>
<path fill-rule="evenodd" clip-rule="evenodd" d="M17.8209 7.16834C19.1721 8.54455 20.0053 10.4298 20.0053 12.5088C20.0053 14.5798 19.1775 16.4597 17.8352 17.835C17.4914 18.1878 17.4976 18.754 17.8504 19.0978C18.2032 19.4425 18.7694 19.4354 19.1132 19.0826C20.7707 17.3858 21.7915 15.0657 21.7915 12.5088C21.7915 9.94307 20.7636 7.61577 19.0962 5.91717C18.7506 5.56531 18.1853 5.55995 17.8334 5.90467C17.4816 6.25028 17.4762 6.81648 17.8209 7.16834Z" fill="#ED6565"/>
<path fill-rule="evenodd" clip-rule="evenodd" d="M15.449 9.66985C16.176 10.3968 16.6252 11.4006 16.6252 12.5089C16.6252 13.6189 16.1742 14.6254 15.4446 15.3524C15.0954 15.7007 15.0945 16.2669 15.4428 16.616C15.7911 16.9643 16.3564 16.9652 16.7056 16.6169C17.7594 15.5658 18.4113 14.1128 18.4113 12.5089C18.4113 10.9085 17.7621 9.4573 16.7127 8.40706C16.3635 8.05877 15.7982 8.05788 15.449 8.40706C15.1007 8.75535 15.1007 9.32066 15.449 9.66985Z" fill="#ED6565"/>
</g>
<defs>
<clipPath id="clip0_3_816">
<rect width="25" height="25" fill="white"/>
</clipPath>
</defs>
</svg>
