<svg width="40" height="40" viewBox="0 0 40 40" fill="none" xmlns="http://www.w3.org/2000/svg">
<g clip-path="url(#clip0_3_851)">
<path fill-rule="evenodd" clip-rule="evenodd" d="M20 0C8.95431 0 0 8.95431 0 20C0 31.0456 8.95431 40 20 40C31.0456 40 40 31.0456 40 20C40 8.95431 31.0456 0 20 0ZM16.3636 14.1818C16.3636 13.6454 16.6404 13.1525 17.0838 12.8994C17.5273 12.6463 18.0653 12.674 18.4836 12.9716L26.6655 18.7898C27.0449 19.0595 27.2727 19.5136 27.2727 20C27.2727 20.4864 27.0449 20.9405 26.6655 21.2102L18.4836 27.0284C18.0653 27.326 17.5273 27.3538 17.0838 27.1005C16.6404 26.8475 16.3636 26.3545 16.3636 25.8182V14.1818Z" fill="white"/>
</g>
<path d="M15 12.9468C15 11.3086 16.8617 10.3652 18.1827 11.334L27.8007 18.3872C28.8904 19.1863 28.8904 20.8137 27.8007 21.6128L18.1827 28.666C16.8617 29.6348 15 28.6914 15 27.0532V12.9468Z" fill="#ED6565"/>
<defs>
<clipPath id="clip0_3_851">
<rect width="40" height="40" fill="white"/>
</clipPath>
</defs>
</svg>
