<svg width="128" height="47" viewBox="0 0 128 47" fill="none" xmlns="http://www.w3.org/2000/svg">
<g clip-path="url(#clip0_3_663)">
<path d="M66.0839 15.5672L72.1737 15.1781C72.3126 16.1625 72.5673 16.8951 72.9841 17.4216C73.6556 18.2458 74.5818 18.6578 75.809 18.6578C76.712 18.6578 77.4298 18.4518 77.9161 18.0168C78.3792 17.6734 78.657 17.124 78.657 16.5517C78.657 16.0022 78.4023 15.4757 77.9624 15.1323C77.4993 14.7202 76.411 14.3081 74.6975 13.9418C71.8958 13.3237 69.8813 12.4995 68.7004 11.4464C67.5195 10.462 66.848 9.01975 66.8944 7.4859C66.8944 6.43281 67.2185 5.37971 67.8205 4.50977C68.5152 3.52535 69.4645 2.74698 70.5991 2.31201C71.8263 1.78546 73.5398 1.51074 75.6932 1.51074C78.3329 1.51074 80.3473 1.9915 81.7366 2.97592C83.1259 3.93743 83.9595 5.49418 84.2142 7.62326L78.1939 7.96666C78.0318 7.05093 77.7077 6.38702 77.1751 5.95205C76.6425 5.51707 75.9479 5.31103 75.0449 5.31103C74.3039 5.31103 73.7482 5.47129 73.3777 5.7689C73.0304 6.04362 72.7988 6.4557 72.822 6.91357C72.822 7.25697 73.0072 7.57747 73.2851 7.78351C73.5861 8.05823 74.3039 8.31006 75.4385 8.53899C78.2402 9.13422 80.2315 9.72945 81.4588 10.3476C82.686 10.9657 83.5658 11.7212 84.0984 12.614C84.6541 13.5297 84.932 14.5828 84.9088 15.6588C84.9088 16.9408 84.5384 18.2229 83.7974 19.2989C83.0333 20.4206 81.9682 21.2906 80.7178 21.8171C79.398 22.3895 77.7308 22.6871 75.7395 22.6871C72.22 22.6871 69.7887 22.0232 68.4226 20.6725C67.0564 19.3218 66.246 17.6276 66.0839 15.5672ZM1.45876 22.3437V1.87704H12.1331C14.1013 1.87704 15.6295 2.03729 16.6715 2.38069C17.6903 2.7012 18.5933 3.3651 19.1954 4.25794C19.8669 5.24235 20.191 6.38702 20.1679 7.57747C20.2373 9.59209 19.1954 11.5151 17.4124 12.5224C16.7178 12.9116 15.9537 13.1863 15.1664 13.3237C15.7453 13.484 16.3242 13.7587 16.8336 14.0792C17.2272 14.3997 17.5514 14.766 17.8524 15.1552C18.1997 15.5444 18.5007 15.9793 18.7554 16.4372L21.8582 22.3666H14.5876L11.1606 16.0709C10.7207 15.2696 10.3502 14.7431 10.0029 14.4913C9.5398 14.1708 8.98408 14.0105 8.42837 14.0105H7.87265V22.3208H1.45876V22.3437ZM7.87265 10.1644H10.5818C11.1606 10.1186 11.7164 10.0271 12.2721 9.8897C12.6889 9.82102 13.0593 9.59209 13.314 9.24869C13.9392 8.42453 13.8466 7.25697 13.0825 6.54727C12.6657 6.20387 11.8553 6.02073 10.6975 6.02073H7.87265V10.1644ZM0 39.88L6.08973 39.4908C6.22865 40.4752 6.48336 41.2078 6.90014 41.7343C7.54848 42.5585 8.49783 42.9934 9.72504 42.9934C10.6281 42.9934 11.3459 42.7874 11.8321 42.3524C12.2952 41.9861 12.5731 41.4596 12.5731 40.8873C12.5731 40.3378 12.3184 39.8113 11.8784 39.4679C11.4153 39.0558 10.3271 38.6437 8.59045 38.2774C5.78871 37.6593 3.77424 36.8351 2.59334 35.7821C1.41245 34.7976 0.740955 33.3554 0.787265 31.8215C0.787265 30.7684 1.11143 29.7153 1.71346 28.8454C2.4081 27.861 3.35745 27.0826 4.49204 26.6476C5.71925 26.1211 7.43271 25.8463 9.58611 25.8463C12.2258 25.8463 14.2402 26.3271 15.6295 27.3115C17.0188 28.2959 17.8292 29.8298 18.0839 31.9589L12.0637 32.3023C11.9016 31.3865 11.5774 30.7226 11.0449 30.2877C10.5355 29.8527 9.81766 29.6466 8.91462 29.6695C8.17366 29.6695 7.61795 29.8298 7.24747 30.1503C6.87699 30.425 6.6686 30.8371 6.69175 31.295C6.69175 31.6384 6.87699 31.9589 7.15485 32.1649C7.45586 32.4396 8.17366 32.6915 9.30825 32.9204C12.11 33.5156 14.1013 34.1108 15.3285 34.729C16.5557 35.3471 17.4356 36.1026 17.9682 36.9954C18.5239 37.9111 18.8017 38.9642 18.8017 40.0173C18.8017 41.2993 18.4081 42.5585 17.6903 43.6345C16.9262 44.7562 15.8611 45.6262 14.6107 46.1527C13.2909 46.7251 11.6237 47.0227 9.63242 47.0227C6.11288 47.0227 3.68162 46.3588 2.31549 45.0081C0.949349 43.6345 0.185239 41.9404 0 39.88H0Z" fill="#333333"/>
<path d="M30.7961 38.2778L36.3996 39.949C36.0986 41.3455 35.4734 42.6733 34.6167 43.8408C33.8294 44.871 32.7874 45.6723 31.6065 46.1988C30.4025 46.7254 28.8743 47.0001 27.0219 47.0001C24.7759 47.0001 22.9235 46.6796 21.511 46.0386C20.0754 45.3976 18.8482 44.2529 17.8063 42.6275C16.7643 41.0021 16.2549 38.9188 16.2549 36.3776C16.2549 32.9894 17.1579 30.3796 18.9872 28.571C20.8164 26.7624 23.3866 25.8467 26.7209 25.8467C29.3374 25.8467 31.375 26.3732 32.8801 27.4034C34.362 28.4565 35.4734 30.0591 36.2144 32.211L30.5646 33.4473C30.4257 32.9665 30.2173 32.4857 29.9394 32.0737C29.5921 31.5929 29.1521 31.2266 28.6196 30.9519C28.087 30.6772 27.485 30.5627 26.883 30.5627C25.4242 30.5627 24.3128 31.135 23.5487 32.3026C22.9698 33.1497 22.6688 34.5004 22.6688 36.3318C22.6688 38.5983 23.0161 40.155 23.7107 41.0021C24.4054 41.8491 25.3779 42.2612 26.6514 42.2612C27.8786 42.2612 28.8048 41.9178 29.43 41.2539C30.0552 40.5442 30.5183 39.5598 30.7961 38.2778ZM43.8786 26.1901H50.2694V33.3557H57.2621V26.1901H63.6992V46.6567H57.2621V38.3693H50.2694V46.6567H43.8786V26.1901Z" fill="#333333"/>
<path d="M62.8193 36.4233C62.8193 33.0809 63.7687 30.4711 65.6442 28.6167C67.5198 26.7624 70.1594 25.8237 73.5169 25.8237C76.967 25.8237 79.6066 26.7395 81.4821 28.5709C83.3577 30.4024 84.2839 32.9664 84.2839 36.2631C84.2839 38.6669 83.8671 40.6128 83.0567 42.1467C82.2694 43.6576 81.0422 44.8939 79.5371 45.718C77.9858 46.5651 76.0639 47.0001 73.7716 47.0001C71.4329 47.0001 69.5111 46.6338 67.9829 45.9012C66.4083 45.1228 65.1117 43.9095 64.2549 42.4214C63.3056 40.8189 62.8193 38.8271 62.8193 36.4233ZM69.2101 36.4462C69.2101 38.5066 69.6037 39.9947 70.3678 40.9104C71.1319 41.8033 72.1971 42.2611 73.54 42.2611C74.9062 42.2611 75.9713 41.8262 76.7354 40.9333C77.4995 40.0405 77.87 38.4608 77.87 36.1715C77.87 34.2485 77.4764 32.8291 76.6891 31.9591C75.9018 31.0663 74.8367 30.6313 73.4937 30.6313C72.3128 30.5855 71.1782 31.0892 70.391 31.982C69.6037 32.8749 69.2101 34.3629 69.2101 36.4462ZM90.8367 36.4233C90.8367 33.0809 91.7861 30.4711 93.6616 28.6167C95.5371 26.7624 98.1768 25.8237 101.534 25.8237C104.984 25.8237 107.647 26.7395 109.5 28.5709C111.352 30.4024 112.301 32.9664 112.301 36.2631C112.301 38.6669 111.884 40.6128 111.074 42.1467C110.287 43.6576 109.06 44.8939 107.555 45.718C106.003 46.5651 104.081 47.0001 101.789 47.0001C99.4503 47.0001 97.5285 46.6338 96.0002 45.9012C94.4257 45.1228 93.129 43.9095 92.2723 42.4214C91.323 40.8189 90.8367 38.8271 90.8367 36.4233ZM97.2274 36.4462C97.2274 38.5066 97.6211 39.9947 98.3852 40.9104C99.1493 41.8033 100.214 42.2611 101.557 42.2611C102.924 42.2611 103.989 41.8262 104.753 40.9333C105.517 40.0405 105.887 38.4608 105.887 36.1715C105.887 34.2485 105.494 32.8291 104.706 31.9591C103.919 31.0663 102.854 30.6313 101.511 30.6313C100.33 30.5855 99.1725 31.0892 98.4083 31.982C97.6211 32.8749 97.2274 34.3629 97.2274 36.4462Z" fill="#333333"/>
<path d="M111.63 26.1899H118.02V41.62H128V46.6566H111.606V26.1899H111.63Z" fill="#333333"/>
<path d="M104.585 25.0089C111.02 20.215 113.004 12.0887 109.017 6.85814C105.03 1.62762 96.5826 1.27364 90.1485 6.0675C83.7144 10.8614 81.7304 18.9877 85.717 24.2182C89.7036 29.4488 98.1513 29.8027 104.585 25.0089Z" fill="white"/>
<path d="M104.585 25.0089C111.02 20.215 113.004 12.0887 109.017 6.85814C105.03 1.62762 96.5826 1.27364 90.1485 6.0675C83.7144 10.8614 81.7304 18.9877 85.717 24.2182C89.7036 29.4488 98.1513 29.8027 104.585 25.0089Z" fill="#333333"/>
<path d="M90.8595 14.0334L93.175 12.4309L96.023 16.4372C96.5093 17.0782 96.8797 17.765 97.1576 18.5205C97.3197 19.0929 97.2734 19.711 97.0418 20.2604C96.7408 20.9472 96.2546 21.5195 95.6062 21.9316C94.8421 22.4582 94.1938 22.7558 93.6381 22.8474C93.1055 22.9389 92.5498 22.8474 92.0404 22.6184C91.4847 22.3437 90.9984 21.9545 90.6279 21.4509L92.6192 19.6194C92.7813 19.8712 92.9897 20.1002 93.2213 20.2833C93.3834 20.3978 93.5686 20.4665 93.777 20.4665C93.9391 20.4665 94.1012 20.3978 94.2169 20.3062C94.4485 20.1688 94.6106 19.8941 94.5874 19.6194C94.5179 19.2302 94.3559 18.841 94.1012 18.5434L90.8595 14.0334ZM97.8059 16.5746L99.913 14.9263C100.145 15.201 100.446 15.407 100.77 15.5215C101.233 15.6589 101.719 15.5673 102.113 15.2697C102.391 15.0865 102.622 14.8347 102.715 14.5142C102.854 14.1021 102.622 13.6442 102.205 13.5069C102.136 13.484 102.066 13.4611 101.997 13.4611C101.719 13.4382 101.233 13.5527 100.515 13.8503C99.3342 14.331 98.408 14.5142 97.7133 14.4455C97.0418 14.3768 96.4166 14.0334 96.0462 13.4611C95.7683 13.0719 95.6294 12.614 95.6062 12.1562C95.6062 11.6296 95.7452 11.1031 96.0462 10.6681C96.4861 10.05 97.0187 9.52345 97.667 9.11137C98.6395 8.44746 99.4962 8.12695 100.237 8.12695C100.978 8.12695 101.673 8.47035 102.321 9.18005L100.237 10.8055C99.8204 10.2789 99.0331 10.1645 98.5006 10.5765L98.4311 10.6452C98.1996 10.7826 98.0375 10.9886 97.9449 11.2404C97.8754 11.4236 97.9217 11.6296 98.0375 11.7899C98.1301 11.9044 98.269 11.9959 98.4311 11.9959C98.6164 12.0188 98.9405 11.9272 99.4036 11.7212C100.561 11.2404 101.441 10.9657 102.043 10.8742C102.553 10.7826 103.085 10.8284 103.571 11.0344C104.011 11.2176 104.382 11.5381 104.637 11.9272C104.961 12.3851 105.146 12.9346 105.169 13.5069C105.192 14.1021 105.03 14.6744 104.706 15.1781C104.289 15.7962 103.757 16.3228 103.132 16.7348C101.858 17.6048 100.816 17.9711 99.9825 17.8337C99.0794 17.6964 98.3385 17.2385 97.8059 16.5746Z" fill="white"/>
</g>
<defs>
<clipPath id="clip0_3_663">
<rect width="128" height="47" fill="white"/>
</clipPath>
</defs>
</svg>
