<svg width="20" height="20" viewBox="0 0 20 20" fill="none" xmlns="http://www.w3.org/2000/svg">
<g clip-path="url(#clip0_3_2315)">
<path d="M16.1916 10.8126C16.225 10.5459 16.25 10.2751 16.25 10.0001C16.25 9.72508 16.225 9.45425 16.1916 9.18758L17.9541 7.80841C18.1125 7.68341 18.1583 7.45841 18.0541 7.27508L16.3875 4.38758C16.2833 4.20841 16.0666 4.13341 15.8791 4.20841L13.8041 5.04591C13.375 4.71675 12.9041 4.43758 12.3958 4.22508L12.0833 2.01675C12.0458 1.82091 11.875 1.66675 11.6666 1.66675H8.33331C8.12498 1.66675 7.95414 1.82091 7.92081 2.01675L7.60831 4.22508C7.09998 4.43758 6.62914 4.71258 6.19998 5.04591L4.12498 4.20841C3.93748 4.13758 3.72081 4.20841 3.61665 4.38758L1.94998 7.27508C1.84581 7.45425 1.89165 7.67925 2.04998 7.80841L3.80831 9.18758C3.77498 9.45425 3.74998 9.72508 3.74998 10.0001C3.74998 10.2751 3.77498 10.5459 3.80831 10.8126L2.04998 12.1917C1.89165 12.3167 1.84581 12.5417 1.94998 12.7251L3.61665 15.6126C3.72081 15.7917 3.93748 15.8667 4.12498 15.7917L6.19998 14.9542C6.62914 15.2834 7.09998 15.5626 7.60831 15.7751L7.92081 17.9834C7.95414 18.1792 8.12498 18.3334 8.33331 18.3334H11.6666C11.875 18.3334 12.0458 18.1792 12.0791 17.9834L12.3916 15.7751C12.9 15.5626 13.3708 15.2876 13.8 14.9542L15.875 15.7917C16.0625 15.8626 16.2791 15.7917 16.3833 15.6126L18.05 12.7251C18.1541 12.5459 18.1083 12.3209 17.95 12.1917L16.1916 10.8126ZM9.99998 12.9167C8.38748 12.9167 7.08331 11.6126 7.08331 10.0001C7.08331 8.38758 8.38748 7.08341 9.99998 7.08341C11.6125 7.08341 12.9166 8.38758 12.9166 10.0001C12.9166 11.6126 11.6125 12.9167 9.99998 12.9167Z" fill="black"/>
</g>
<defs>
<clipPath id="clip0_3_2315">
<rect width="20" height="20" fill="white"/>
</clipPath>
</defs>
</svg>
