<svg width="134" height="42" viewBox="0 0 134 42" fill="none" xmlns="http://www.w3.org/2000/svg">
<path d="M39.4497 10.8488C38.3112 11.2964 36.5991 11.4968 35.3904 11.389C36.0829 10.8992 37.842 9.46601 38.2497 7.25C36.4456 8.42892 33.9191 8.91994 32.8398 8.90231C31.5173 7.87107 29.8574 7.25 28.0498 7.25C23.742 7.25 20.2499 10.741 20.2499 15.0487C20.2499 15.4542 20.2903 15.8503 20.3501 16.2394C17.2411 16.1831 10.3271 14.9773 4.64998 8.44879C1.55041 13.7492 5.35483 17.0468 7.04996 18.5022C5.50018 19.3495 3.44999 17.4827 3.44999 17.4827C3.44999 17.4827 3.35039 23.7733 9.82082 25.053C8.72515 25.8733 6.79977 25.7995 5.84997 25.1995C7.15954 30.2948 12.686 30.5865 13.0499 30.5865C9.70074 33.0615 6.59997 33.7482 2.25 33.6486C6.02517 36.4986 10.4267 37.2029 14.2499 37.2486C17.2534 37.2838 20.0108 36.665 22.1969 35.7556C31.2965 31.9694 35.8497 24.003 35.8497 15.0487C35.8497 14.8027 35.8351 14.5612 35.8128 14.321C37.4968 13.6883 38.7097 12.2656 39.4497 10.8488Z" fill="#ED6565"/>
<path d="M60.6719 28.2793C60.6719 28.0254 60.6328 27.7975 60.5547 27.5957C60.4831 27.3874 60.3464 27.1986 60.1445 27.0293C59.9427 26.8535 59.6595 26.681 59.2949 26.5117C58.9303 26.3424 58.4583 26.1667 57.8789 25.9844C57.2344 25.776 56.6224 25.5417 56.043 25.2812C55.4701 25.0208 54.9622 24.7181 54.5195 24.373C54.0833 24.0215 53.7383 23.6146 53.4844 23.1523C53.237 22.6901 53.1133 22.153 53.1133 21.541C53.1133 20.9486 53.2435 20.4115 53.5039 19.9297C53.7643 19.4414 54.1289 19.0247 54.5977 18.6797C55.0664 18.3281 55.6198 18.0579 56.2578 17.8691C56.9023 17.6803 57.6087 17.5859 58.377 17.5859C59.4251 17.5859 60.3398 17.7747 61.1211 18.1523C61.9023 18.5299 62.5078 19.0475 62.9375 19.7051C63.3737 20.3626 63.5918 21.1146 63.5918 21.9609H60.6816C60.6816 21.5443 60.5938 21.1797 60.418 20.8672C60.2487 20.5482 59.9883 20.2975 59.6367 20.1152C59.2917 19.9329 58.8555 19.8418 58.3281 19.8418C57.8203 19.8418 57.3971 19.9199 57.0586 20.0762C56.7201 20.2259 56.4661 20.431 56.2969 20.6914C56.1276 20.9453 56.043 21.2318 56.043 21.5508C56.043 21.7917 56.1016 22.0098 56.2188 22.2051C56.3424 22.4004 56.5247 22.5827 56.7656 22.752C57.0065 22.9212 57.3027 23.0807 57.6543 23.2305C58.0059 23.3802 58.4128 23.5267 58.875 23.6699C59.6497 23.9043 60.3301 24.168 60.916 24.4609C61.5085 24.7539 62.0033 25.0827 62.4004 25.4473C62.7975 25.8118 63.097 26.2253 63.2988 26.6875C63.5007 27.1497 63.6016 27.6738 63.6016 28.2598C63.6016 28.8783 63.4811 29.4316 63.2402 29.9199C62.9993 30.4082 62.651 30.8216 62.1953 31.1602C61.7396 31.4987 61.196 31.7559 60.5645 31.9316C59.9329 32.1074 59.2266 32.1953 58.4453 32.1953C57.7422 32.1953 57.0488 32.1042 56.3652 31.9219C55.6816 31.7331 55.0599 31.4499 54.5 31.0723C53.9466 30.6947 53.5039 30.2129 53.1719 29.627C52.8398 29.041 52.6738 28.3477 52.6738 27.5469H55.6133C55.6133 27.9896 55.6816 28.3639 55.8184 28.6699C55.9551 28.9759 56.1471 29.2233 56.3945 29.4121C56.6484 29.6009 56.9479 29.7376 57.293 29.8223C57.6445 29.9069 58.0286 29.9492 58.4453 29.9492C58.9531 29.9492 59.3698 29.8776 59.6953 29.7344C60.0273 29.5911 60.2715 29.3926 60.4277 29.1387C60.5905 28.8848 60.6719 28.5983 60.6719 28.2793ZM64.9688 26.8242V26.6191C64.9688 25.8444 65.0794 25.1315 65.3008 24.4805C65.5221 23.8229 65.8444 23.2533 66.2676 22.7715C66.6908 22.2897 67.2116 21.9154 67.8301 21.6484C68.4486 21.375 69.1582 21.2383 69.959 21.2383C70.7598 21.2383 71.4727 21.375 72.0977 21.6484C72.7227 21.9154 73.2467 22.2897 73.6699 22.7715C74.0996 23.2533 74.4251 23.8229 74.6465 24.4805C74.8678 25.1315 74.9785 25.8444 74.9785 26.6191V26.8242C74.9785 27.5924 74.8678 28.3053 74.6465 28.9629C74.4251 29.6139 74.0996 30.1836 73.6699 30.6719C73.2467 31.1536 72.7259 31.528 72.1074 31.7949C71.4889 32.0618 70.7793 32.1953 69.9785 32.1953C69.1777 32.1953 68.4648 32.0618 67.8398 31.7949C67.2214 31.528 66.6973 31.1536 66.2676 30.6719C65.8444 30.1836 65.5221 29.6139 65.3008 28.9629C65.0794 28.3053 64.9688 27.5924 64.9688 26.8242ZM67.7812 26.6191V26.8242C67.7812 27.2669 67.8203 27.6803 67.8984 28.0645C67.9766 28.4486 68.1003 28.7871 68.2695 29.0801C68.4453 29.3665 68.6732 29.5911 68.9531 29.7539C69.2331 29.9167 69.5749 29.998 69.9785 29.998C70.3691 29.998 70.7044 29.9167 70.9844 29.7539C71.2643 29.5911 71.4889 29.3665 71.6582 29.0801C71.8275 28.7871 71.9512 28.4486 72.0293 28.0645C72.1139 27.6803 72.1562 27.2669 72.1562 26.8242V26.6191C72.1562 26.1895 72.1139 25.7858 72.0293 25.4082C71.9512 25.0241 71.8242 24.6855 71.6484 24.3926C71.4792 24.0931 71.2546 23.8587 70.9746 23.6895C70.6947 23.5202 70.3561 23.4355 69.959 23.4355C69.5618 23.4355 69.2233 23.5202 68.9434 23.6895C68.6699 23.8587 68.4453 24.0931 68.2695 24.3926C68.1003 24.6855 67.9766 25.0241 67.8984 25.4082C67.8203 25.7858 67.7812 26.1895 67.7812 26.6191ZM79.4609 23.6895V32H76.6484V21.4336H79.2852L79.4609 23.6895ZM79.0508 26.3457H78.2891C78.2891 25.5645 78.39 24.8613 78.5918 24.2363C78.7936 23.6048 79.0768 23.0677 79.4414 22.625C79.806 22.1758 80.2389 21.834 80.7402 21.5996C81.248 21.3587 81.8145 21.2383 82.4395 21.2383C82.9342 21.2383 83.3867 21.3099 83.7969 21.4531C84.207 21.5964 84.5586 21.8242 84.8516 22.1367C85.151 22.4492 85.3789 22.8626 85.5352 23.377C85.6979 23.8913 85.7793 24.5195 85.7793 25.2617V32H82.9473V25.252C82.9473 24.7832 82.8822 24.4186 82.752 24.1582C82.6217 23.8978 82.4297 23.7155 82.1758 23.6113C81.9284 23.5007 81.6224 23.4453 81.2578 23.4453C80.8802 23.4453 80.5514 23.5202 80.2715 23.6699C79.998 23.8197 79.7702 24.028 79.5879 24.2949C79.4121 24.5553 79.2786 24.8613 79.1875 25.2129C79.0964 25.5645 79.0508 25.9421 79.0508 26.3457ZM94.6074 21.4336H97.1562V31.6484C97.1562 32.612 96.9414 33.429 96.5117 34.0996C96.0885 34.7767 95.4961 35.2878 94.7344 35.6328C93.9727 35.9844 93.0872 36.1602 92.0781 36.1602C91.6354 36.1602 91.1667 36.1016 90.6719 35.9844C90.1836 35.8672 89.7148 35.6849 89.2656 35.4375C88.8229 35.1901 88.4518 34.8776 88.1523 34.5L89.3926 32.8398C89.7181 33.2174 90.0957 33.5104 90.5254 33.7188C90.9551 33.9336 91.4303 34.041 91.9512 34.041C92.459 34.041 92.8887 33.9466 93.2402 33.7578C93.5918 33.5755 93.862 33.3053 94.0508 32.9473C94.2396 32.5957 94.334 32.1693 94.334 31.668V23.875L94.6074 21.4336ZM87.498 26.8438V26.6387C87.498 25.8314 87.5957 25.099 87.791 24.4414C87.9928 23.7773 88.276 23.2077 88.6406 22.7324C89.0117 22.2572 89.4609 21.8893 89.9883 21.6289C90.5156 21.3685 91.1113 21.2383 91.7754 21.2383C92.4785 21.2383 93.0677 21.3685 93.543 21.6289C94.0182 21.8893 94.4089 22.2604 94.7148 22.7422C95.0208 23.2174 95.2585 23.7806 95.4277 24.4316C95.6035 25.0762 95.7402 25.7826 95.8379 26.5508V27C95.7402 27.7357 95.5938 28.4193 95.3984 29.0508C95.2031 29.6823 94.946 30.2357 94.627 30.7109C94.3079 31.1797 93.9108 31.5443 93.4355 31.8047C92.9668 32.0651 92.4069 32.1953 91.7559 32.1953C91.1048 32.1953 90.5156 32.0618 89.9883 31.7949C89.4674 31.528 89.0215 31.1536 88.6504 30.6719C88.2793 30.1901 87.9928 29.6237 87.791 28.9727C87.5957 28.3216 87.498 27.612 87.498 26.8438ZM90.3105 26.6387V26.8438C90.3105 27.2799 90.3529 27.6868 90.4375 28.0645C90.5221 28.4421 90.6523 28.7773 90.8281 29.0703C91.0104 29.3568 91.235 29.5814 91.502 29.7441C91.7754 29.9004 92.0977 29.9785 92.4688 29.9785C92.9831 29.9785 93.403 29.8711 93.7285 29.6562C94.054 29.4349 94.2982 29.1322 94.4609 28.748C94.6237 28.3639 94.7181 27.9212 94.7441 27.4199V26.1406C94.7311 25.7305 94.6758 25.3626 94.5781 25.0371C94.4805 24.7051 94.3438 24.4219 94.168 24.1875C93.9922 23.9531 93.7643 23.7708 93.4844 23.6406C93.2044 23.5104 92.8724 23.4453 92.4883 23.4453C92.1172 23.4453 91.7949 23.5299 91.5215 23.6992C91.2546 23.862 91.0299 24.0866 90.8477 24.373C90.6719 24.6595 90.5384 24.998 90.4473 25.3887C90.3561 25.7728 90.3105 26.1895 90.3105 26.6387ZM99.3438 17H102.156V29.5781L101.873 32H99.3438V17ZM108.846 26.6094V26.8145C108.846 27.6022 108.761 28.3249 108.592 28.9824C108.429 29.64 108.175 30.2096 107.83 30.6914C107.485 31.1667 107.055 31.5378 106.541 31.8047C106.033 32.0651 105.434 32.1953 104.744 32.1953C104.1 32.1953 103.54 32.0651 103.064 31.8047C102.596 31.5443 102.202 31.1764 101.883 30.7012C101.564 30.2259 101.307 29.6693 101.111 29.0312C100.916 28.3932 100.77 27.6966 100.672 26.9414V26.4922C100.77 25.737 100.916 25.0404 101.111 24.4023C101.307 23.7643 101.564 23.2077 101.883 22.7324C102.202 22.2572 102.596 21.8893 103.064 21.6289C103.533 21.3685 104.087 21.2383 104.725 21.2383C105.421 21.2383 106.027 21.3717 106.541 21.6387C107.062 21.8991 107.492 22.2702 107.83 22.752C108.175 23.2272 108.429 23.7936 108.592 24.4512C108.761 25.1022 108.846 25.8216 108.846 26.6094ZM106.033 26.8145V26.6094C106.033 26.1797 106.001 25.776 105.936 25.3984C105.877 25.0143 105.773 24.679 105.623 24.3926C105.473 24.0996 105.268 23.8685 105.008 23.6992C104.754 23.5299 104.425 23.4453 104.021 23.4453C103.637 23.4453 103.312 23.5104 103.045 23.6406C102.778 23.7708 102.557 23.9531 102.381 24.1875C102.212 24.4219 102.085 24.7018 102 25.0273C101.915 25.3464 101.863 25.6979 101.844 26.082V27.3613C101.863 27.8757 101.948 28.3314 102.098 28.7285C102.254 29.1191 102.488 29.4284 102.801 29.6562C103.12 29.8776 103.533 29.9883 104.041 29.9883C104.438 29.9883 104.767 29.9102 105.027 29.7539C105.288 29.5977 105.49 29.3763 105.633 29.0898C105.783 28.8034 105.887 28.4681 105.945 28.084C106.004 27.6934 106.033 27.2702 106.033 26.8145ZM113.562 21.4336V32H110.74V21.4336H113.562ZM110.564 18.6797C110.564 18.2695 110.708 17.931 110.994 17.6641C111.281 17.3971 111.665 17.2637 112.146 17.2637C112.622 17.2637 113.003 17.3971 113.289 17.6641C113.582 17.931 113.729 18.2695 113.729 18.6797C113.729 19.0898 113.582 19.4284 113.289 19.6953C113.003 19.9622 112.622 20.0957 112.146 20.0957C111.665 20.0957 111.281 19.9622 110.994 19.6953C110.708 19.4284 110.564 19.0898 110.564 18.6797ZM118.699 23.7383V32H115.887V21.4336H118.533L118.699 23.7383ZM121.883 21.3652L121.834 23.9727C121.697 23.9531 121.531 23.9368 121.336 23.9238C121.147 23.9043 120.975 23.8945 120.818 23.8945C120.421 23.8945 120.076 23.9466 119.783 24.0508C119.497 24.1484 119.256 24.2949 119.061 24.4902C118.872 24.6855 118.729 24.9232 118.631 25.2031C118.54 25.4831 118.488 25.8021 118.475 26.1602L117.908 25.9844C117.908 25.3008 117.977 24.6725 118.113 24.0996C118.25 23.5202 118.449 23.0156 118.709 22.5859C118.976 22.1562 119.301 21.8242 119.686 21.5898C120.07 21.3555 120.509 21.2383 121.004 21.2383C121.16 21.2383 121.32 21.2513 121.482 21.2773C121.645 21.2969 121.779 21.3262 121.883 21.3652ZM129.256 29.6953V17H132.088V32H129.539L129.256 29.6953ZM122.576 26.8438V26.6387C122.576 25.8314 122.667 25.099 122.85 24.4414C123.032 23.7773 123.299 23.2077 123.65 22.7324C124.002 22.2572 124.435 21.8893 124.949 21.6289C125.464 21.3685 126.049 21.2383 126.707 21.2383C127.326 21.2383 127.866 21.3685 128.328 21.6289C128.797 21.8893 129.194 22.2604 129.52 22.7422C129.852 23.2174 130.118 23.7806 130.32 24.4316C130.522 25.0762 130.669 25.7826 130.76 26.5508V27C130.669 27.7357 130.522 28.4193 130.32 29.0508C130.118 29.6823 129.852 30.2357 129.52 30.7109C129.194 31.1797 128.797 31.5443 128.328 31.8047C127.859 32.0651 127.312 32.1953 126.688 32.1953C126.03 32.1953 125.444 32.0618 124.93 31.7949C124.422 31.528 123.992 31.1536 123.641 30.6719C123.296 30.1901 123.032 29.6237 122.85 28.9727C122.667 28.3216 122.576 27.612 122.576 26.8438ZM125.389 26.6387V26.8438C125.389 27.2799 125.421 27.6868 125.486 28.0645C125.558 28.4421 125.672 28.7773 125.828 29.0703C125.991 29.3568 126.199 29.5814 126.453 29.7441C126.714 29.9004 127.029 29.9785 127.4 29.9785C127.882 29.9785 128.279 29.8711 128.592 29.6562C128.904 29.4349 129.142 29.1322 129.305 28.748C129.474 28.3639 129.572 27.9212 129.598 27.4199V26.1406C129.578 25.7305 129.52 25.3626 129.422 25.0371C129.331 24.7051 129.194 24.4219 129.012 24.1875C128.836 23.9531 128.615 23.7708 128.348 23.6406C128.087 23.5104 127.778 23.4453 127.42 23.4453C127.055 23.4453 126.743 23.5299 126.482 23.6992C126.222 23.862 126.01 24.0866 125.848 24.373C125.691 24.6595 125.574 24.998 125.496 25.3887C125.424 25.7728 125.389 26.1895 125.389 26.6387Z" fill="black"/>
</svg>
