<?xml version="1.0" encoding="UTF-8" standalone="no"?>
<svg
   width="37.199699"
   height="30.000027"
   viewBox="0 0 37.199699 30.000027"
   fill="none"
   version="1.1"
   id="svg6"
   sodipodi:docname="songbird-logo.svg"
   xmlns:inkscape="http://www.inkscape.org/namespaces/inkscape"
   xmlns:sodipodi="http://sodipodi.sourceforge.net/DTD/sodipodi-0.dtd"
   xmlns="http://www.w3.org/2000/svg"
   xmlns:svg="http://www.w3.org/2000/svg">
  <defs
     id="defs10" />
  <sodipodi:namedview
     id="namedview8"
     pagecolor="#ffffff"
     bordercolor="#666666"
     borderopacity="1.0"
     inkscape:showpageshadow="2"
     inkscape:pageopacity="0.0"
     inkscape:pagecheckerboard="0"
     inkscape:deskcolor="#d1d1d1"
     showgrid="false" />
  <path
     d="M 37.1997,3.5988 C 36.0612,4.0464 34.3491,4.2468 33.1404,4.139 33.8329,3.6492 35.592,2.21601 35.9997,0 34.1956,1.17892 31.6691,1.66994 30.5898,1.65231 29.2673,0.62107 27.6074,0 25.7998,0 21.492,0 17.9999,3.491 17.9999,7.7987 c 0,0.4055 0.0404,0.8016 0.1002,1.1907 C 14.9911,8.9331 8.0771,7.7273 2.39998,1.19879 -0.69959,6.4992 3.10483,9.7968 4.79996,11.2522 3.25018,12.0995 1.19999,10.2327 1.19999,10.2327 c 0,0 -0.0996,6.2906 6.37083,7.5703 -1.09567,0.8203 -3.02105,0.7465 -3.97085,0.1465 1.30957,5.0953 6.83603,5.387 7.19993,5.387 C 7.45074,25.8115 4.34997,26.4982 0,26.3986 c 3.77517,2.85 8.1767,3.5543 11.9999,3.6 3.0035,0.0352 5.7609,-0.5836 7.947,-1.493 9.0996,-3.7862 13.6528,-11.7526 13.6528,-20.7069 0,-0.246 -0.0146,-0.4875 -0.0369,-0.7277 1.684,-0.6327 2.8969,-2.0554 3.6369,-3.4722 z"
     fill="#ed6565"
     id="path2" />
</svg>
