<svg width="24" height="19" viewBox="0 0 24 19" fill="none" xmlns="http://www.w3.org/2000/svg">
<path fill-rule="evenodd" clip-rule="evenodd" d="M21.652 1.211C21.359 0.915996 20.882 0.915996 20.591 1.211L9.41 12.34C9.117 12.637 8.639 12.637 8.348 12.34L3.449 7.351C3.304 7.203 3.114 7.13 2.923 7.129C2.73 7.128 2.534 7.201 2.387 7.351L0.222 9.297C0.078 9.445 0 9.63 0 9.823C0 10.017 0.078 10.22 0.223 10.367L5.163 15.551C5.455 15.847 5.934 16.327 6.225 16.621L8.349 18.762C8.641 19.055 9.118 19.055 9.411 18.762L23.777 4.422C24.07 4.128 24.07 3.645 23.777 3.351L21.652 1.211Z" fill="#B9ED65"/>
</svg>
