<svg width="24" height="24" viewBox="0 0 24 24" fill="none" xmlns="http://www.w3.org/2000/svg">
  <path d="M22.245 4.01499C22.558 4.32799 22.558 4.84099 22.245 5.15399L15.969 11.424C15.656 11.736 15.656 12.25 15.969 12.564L22.242 18.836C22.555 19.149 22.555 19.662 22.242 19.976L19.957 22.253C19.643 22.565 19.129 22.565 18.815 22.253L12.544 15.982C12.231 15.669 11.716 15.669 11.403 15.982L5.12699 22.249C4.81399 22.562 4.29899 22.562 3.98599 22.249L1.70399 19.969C1.39099 19.656 1.39099 19.143 1.70399 18.829L7.98199 12.56C8.29499 12.248 8.29499 11.734 7.98199 11.42L1.70899 5.14699C1.39499 4.83399 1.39499 4.31999 1.70899 4.00699L3.99299 1.72899C4.30799 1.41699 4.82099 1.41699 5.13499 1.72999L11.405 7.99999C11.719 8.31399 12.233 8.31399 12.546 8.00099L18.822 1.73399C19.134 1.42199 19.648 1.42199 19.963 1.73399L22.245 4.01499Z" fill="#ED6565"/>
</svg>